<?xml version="1.0" encoding="UTF-8" standalone="no"?>
<!-- Created with Inkscape (http://www.inkscape.org/) -->

<svg
   width="210mm"
   height="297mm"
   viewBox="0 0 793.70081 1122.5197"
   version="1.1"
   id="svg1"
   xml:space="preserve"
   inkscape:version="1.3.2 (091e20e, 2023-11-25, custom)"
   sodipodi:docname="PG1316S_papermods.svg"
   xmlns:inkscape="http://www.inkscape.org/namespaces/inkscape"
   xmlns:sodipodi="http://sodipodi.sourceforge.net/DTD/sodipodi-0.dtd"
   xmlns="http://www.w3.org/2000/svg"
   xmlns:svg="http://www.w3.org/2000/svg"><sodipodi:namedview
     id="namedview1"
     pagecolor="#ffffff"
     bordercolor="#111111"
     borderopacity="1"
     inkscape:showpageshadow="0"
     inkscape:pageopacity="0"
     inkscape:pagecheckerboard="1"
     inkscape:deskcolor="#d1d1d1"
     inkscape:document-units="mm"
     inkscape:zoom="1"
     inkscape:cx="191.5"
     inkscape:cy="688"
     inkscape:window-width="3411"
     inkscape:window-height="1663"
     inkscape:window-x="225"
     inkscape:window-y="323"
     inkscape:window-maximized="0"
     inkscape:current-layer="g12" /><defs
     id="defs1"><marker
       id="DistanceX"
       orient="auto"
       refX="0.0"
       refY="0.0"
       style="overflow:visible"><path
         d="M 3,-3 L -3,3 M 0,-5 L  0,5"
         style="stroke:#000000; stroke-width:0.5"
         id="path1" /></marker><pattern
       id="Hatch"
       patternUnits="userSpaceOnUse"
       width="8"
       height="8"
       x="0"
       y="0"><path
         d="M8 4 l-4,4"
         stroke="#000000"
         stroke-width="0.25"
         linecap="square"
         id="path2" /><path
         d="M6 2 l-4,4"
         stroke="#000000"
         stroke-width="0.25"
         linecap="square"
         id="path3" /><path
         d="M4 0 l-4,4"
         stroke="#000000"
         stroke-width="0.25"
         linecap="square"
         id="path4" /></pattern><symbol
       id="$MODEL_SPACE" /><symbol
       id="$PAPER_SPACE" /></defs><g
     inkscape:label="Layer 1"
     inkscape:groupmode="layer"
     id="layer1"><g
       id="g12"
       transform="translate(0,16.800304)"><g
         id="g6"
         style="stroke-width:0.377953;stroke-dasharray:none"
         transform="translate(0,-56)"><g
           id="g7"
           transform="translate(16.340283,34)"
           style="stroke-width:0.377953;stroke-dasharray:none"><path
             id="rect1"
             style="fill:none;stroke:#000000;stroke-width:0.377953;stroke-linecap:round;stroke-linejoin:round;stroke-dasharray:none;stroke-opacity:1;paint-order:markers stroke fill"
             d="m 136.34798,145.15517 v 48 h -16.62891 v 48.00001 h 16.62891 v 48 h 18.89844 v -48 h 16.63086 v -48.00001 h -16.63086 v -48 z" /><path
             id="path5"
             style="fill:none;stroke:#000000;stroke-width:0.377953;stroke-linecap:round;stroke-linejoin:round;stroke-dasharray:none;stroke-opacity:1;paint-order:markers stroke fill"
             d="m 188.50619,145.15517 v 48 h -16.62891 v 48.00001 h 16.62891 v 48 h 18.89844 v -48 h 16.63086 v -48.00001 h -16.63086 v -48 z" /><path
             id="path5-9"
             style="fill:none;stroke:#000000;stroke-width:0.377953;stroke-linecap:round;stroke-linejoin:round;stroke-dasharray:none;stroke-opacity:1;paint-order:markers stroke fill"
             d="m 240.6644,145.15517 v 48 h -16.62891 v 48.00001 h 16.62891 v 48 h 18.89844 v -48 h 16.63086 v -48.00001 h -16.63086 v -48 z" /><path
             id="path5-2"
             style="fill:none;stroke:#000000;stroke-width:0.377953;stroke-linecap:round;stroke-linejoin:round;stroke-dasharray:none;stroke-opacity:1;paint-order:markers stroke fill"
             d="m 292.82261,145.15517 v 48 H 276.1937 v 48.00001 h 16.62891 v 48 h 18.89844 v -48 h 16.63086 v -48.00001 h -16.63086 v -48 z" /><path
             id="path5-22"
             style="fill:none;stroke:#000000;stroke-width:0.377953;stroke-linecap:round;stroke-linejoin:round;stroke-dasharray:none;stroke-opacity:1;paint-order:markers stroke fill"
             d="m 344.98082,145.15517 v 48 h -16.62891 v 48.00001 h 16.62891 v 48 h 18.89844 v -48 h 16.63086 v -48.00001 h -16.63086 v -48 z" /><path
             id="path5-6"
             style="fill:none;stroke:#000000;stroke-width:0.377953;stroke-linecap:round;stroke-linejoin:round;stroke-dasharray:none;stroke-opacity:1;paint-order:markers stroke fill"
             d="m 397.13903,145.15517 v 48 h -16.62891 v 48.00001 h 16.62891 v 48 h 18.89844 v -48 h 16.63086 v -48.00001 h -16.63086 v -48 z" /><path
             id="path5-4"
             style="fill:none;stroke:#000000;stroke-width:0.377953;stroke-linecap:round;stroke-linejoin:round;stroke-dasharray:none;stroke-opacity:1;paint-order:markers stroke fill"
             d="m 449.29724,145.15517 v 48 h -16.62891 v 48.00001 h 16.62891 v 48 h 18.89844 v -48 h 16.63086 v -48.00001 h -16.63086 v -48 z" /><path
             id="path5-0"
             style="fill:none;stroke:#000000;stroke-width:0.377953;stroke-linecap:round;stroke-linejoin:round;stroke-dasharray:none;stroke-opacity:1;paint-order:markers stroke fill"
             d="m 501.45545,145.15517 v 48 h -16.62891 v 48.00001 h 16.62891 v 48 h 18.89844 v -48 h 16.63086 v -48.00001 h -16.63086 v -48 z" /><path
             id="path5-60"
             style="fill:none;stroke:#000000;stroke-width:0.377953;stroke-linecap:round;stroke-linejoin:round;stroke-dasharray:none;stroke-opacity:1;paint-order:markers stroke fill"
             d="m 553.61366,145.15517 v 48 h -16.62891 v 48.00001 h 16.62891 v 48 h 18.89844 v -48 h 16.63086 V 193.15517 H 572.5121 v -48 z" /><path
             id="path5-00"
             style="fill:none;stroke:#000000;stroke-width:0.377953;stroke-linecap:round;stroke-linejoin:round;stroke-dasharray:none;stroke-opacity:1;paint-order:markers stroke fill"
             d="m 605.77187,145.15517 v 48 h -16.62891 v 48.00001 h 16.62891 v 48 h 18.89844 v -48 h 16.63086 v -48.00001 h -16.63086 v -48 z" /><path
             id="rect1-2"
             style="fill:none;stroke:#000000;stroke-width:0.377953;stroke-linecap:round;stroke-linejoin:round;stroke-dasharray:none;stroke-opacity:1;paint-order:markers stroke fill"
             d="m 136.34798,289.15518 v 48 h -16.62891 v 48.00001 h 16.62891 v 48 h 18.89844 v -48 h 16.63086 v -48.00001 h -16.63086 v -48 z" /><path
             id="path5-7"
             style="fill:none;stroke:#000000;stroke-width:0.377953;stroke-linecap:round;stroke-linejoin:round;stroke-dasharray:none;stroke-opacity:1;paint-order:markers stroke fill"
             d="m 188.50619,289.15518 v 48 h -16.62891 v 48.00001 h 16.62891 v 48 h 18.89844 v -48 h 16.63086 v -48.00001 h -16.63086 v -48 z" /><path
             id="path5-9-6"
             style="fill:none;stroke:#000000;stroke-width:0.377953;stroke-linecap:round;stroke-linejoin:round;stroke-dasharray:none;stroke-opacity:1;paint-order:markers stroke fill"
             d="m 240.6644,289.15518 v 48 h -16.62891 v 48.00001 h 16.62891 v 48 h 18.89844 v -48 h 16.63086 v -48.00001 h -16.63086 v -48 z" /><path
             id="path5-2-4"
             style="fill:none;stroke:#000000;stroke-width:0.377953;stroke-linecap:round;stroke-linejoin:round;stroke-dasharray:none;stroke-opacity:1;paint-order:markers stroke fill"
             d="m 292.82261,289.15518 v 48 H 276.1937 v 48.00001 h 16.62891 v 48 h 18.89844 v -48 h 16.63086 v -48.00001 h -16.63086 v -48 z" /><path
             id="path5-22-8"
             style="fill:none;stroke:#000000;stroke-width:0.377953;stroke-linecap:round;stroke-linejoin:round;stroke-dasharray:none;stroke-opacity:1;paint-order:markers stroke fill"
             d="m 344.98082,289.15518 v 48 h -16.62891 v 48.00001 h 16.62891 v 48 h 18.89844 v -48 h 16.63086 v -48.00001 h -16.63086 v -48 z" /><path
             id="path5-6-6"
             style="fill:none;stroke:#000000;stroke-width:0.377953;stroke-linecap:round;stroke-linejoin:round;stroke-dasharray:none;stroke-opacity:1;paint-order:markers stroke fill"
             d="m 397.13903,289.15518 v 48 h -16.62891 v 48.00001 h 16.62891 v 48 h 18.89844 v -48 h 16.63086 v -48.00001 h -16.63086 v -48 z" /><path
             id="path5-4-3"
             style="fill:none;stroke:#000000;stroke-width:0.377953;stroke-linecap:round;stroke-linejoin:round;stroke-dasharray:none;stroke-opacity:1;paint-order:markers stroke fill"
             d="m 449.29724,289.15518 v 48 h -16.62891 v 48.00001 h 16.62891 v 48 h 18.89844 v -48 h 16.63086 v -48.00001 h -16.63086 v -48 z" /><path
             id="path5-0-0"
             style="fill:none;stroke:#000000;stroke-width:0.377953;stroke-linecap:round;stroke-linejoin:round;stroke-dasharray:none;stroke-opacity:1;paint-order:markers stroke fill"
             d="m 501.45545,289.15518 v 48 h -16.62891 v 48.00001 h 16.62891 v 48 h 18.89844 v -48 h 16.63086 v -48.00001 h -16.63086 v -48 z" /><path
             id="path5-60-8"
             style="fill:none;stroke:#000000;stroke-width:0.377953;stroke-linecap:round;stroke-linejoin:round;stroke-dasharray:none;stroke-opacity:1;paint-order:markers stroke fill"
             d="m 553.61366,289.15518 v 48 h -16.62891 v 48.00001 h 16.62891 v 48 h 18.89844 v -48 h 16.63086 V 337.15518 H 572.5121 v -48 z" /><path
             id="path5-00-0"
             style="fill:none;stroke:#000000;stroke-width:0.377953;stroke-linecap:round;stroke-linejoin:round;stroke-dasharray:none;stroke-opacity:1;paint-order:markers stroke fill"
             d="m 605.77187,289.15518 v 48 h -16.62891 v 48.00001 h 16.62891 v 48 h 18.89844 v -48 h 16.63086 v -48.00001 h -16.63086 v -48 z" /><path
             id="rect1-8"
             style="fill:none;stroke:#000000;stroke-width:0.377953;stroke-linecap:round;stroke-linejoin:round;stroke-dasharray:none;stroke-opacity:1;paint-order:markers stroke fill"
             d="m 136.34798,433.15519 v 48 h -16.62891 v 48.00001 h 16.62891 v 48 h 18.89844 v -48 h 16.63086 v -48.00001 h -16.63086 v -48 z" /><path
             id="path5-61"
             style="fill:none;stroke:#000000;stroke-width:0.377953;stroke-linecap:round;stroke-linejoin:round;stroke-dasharray:none;stroke-opacity:1;paint-order:markers stroke fill"
             d="m 188.50619,433.15519 v 48 h -16.62891 v 48.00001 h 16.62891 v 48 h 18.89844 v -48 h 16.63086 v -48.00001 h -16.63086 v -48 z" /><path
             id="path5-9-1"
             style="fill:none;stroke:#000000;stroke-width:0.377953;stroke-linecap:round;stroke-linejoin:round;stroke-dasharray:none;stroke-opacity:1;paint-order:markers stroke fill"
             d="m 240.6644,433.15519 v 48 h -16.62891 v 48.00001 h 16.62891 v 48 h 18.89844 v -48 h 16.63086 v -48.00001 h -16.63086 v -48 z" /><path
             id="path5-2-6"
             style="fill:none;stroke:#000000;stroke-width:0.377953;stroke-linecap:round;stroke-linejoin:round;stroke-dasharray:none;stroke-opacity:1;paint-order:markers stroke fill"
             d="m 292.82261,433.15519 v 48 H 276.1937 v 48.00001 h 16.62891 v 48 h 18.89844 v -48 h 16.63086 v -48.00001 h -16.63086 v -48 z" /><path
             id="path5-22-2"
             style="fill:none;stroke:#000000;stroke-width:0.377953;stroke-linecap:round;stroke-linejoin:round;stroke-dasharray:none;stroke-opacity:1;paint-order:markers stroke fill"
             d="m 344.98082,433.15519 v 48 h -16.62891 v 48.00001 h 16.62891 v 48 h 18.89844 v -48 h 16.63086 v -48.00001 h -16.63086 v -48 z" /><path
             id="path5-6-1"
             style="fill:none;stroke:#000000;stroke-width:0.377953;stroke-linecap:round;stroke-linejoin:round;stroke-dasharray:none;stroke-opacity:1;paint-order:markers stroke fill"
             d="m 397.13903,433.15519 v 48 h -16.62891 v 48.00001 h 16.62891 v 48 h 18.89844 v -48 h 16.63086 v -48.00001 h -16.63086 v -48 z" /><path
             id="path5-4-2"
             style="fill:none;stroke:#000000;stroke-width:0.377953;stroke-linecap:round;stroke-linejoin:round;stroke-dasharray:none;stroke-opacity:1;paint-order:markers stroke fill"
             d="m 449.29724,433.15519 v 48 h -16.62891 v 48.00001 h 16.62891 v 48 h 18.89844 v -48 h 16.63086 v -48.00001 h -16.63086 v -48 z" /><path
             id="path5-0-9"
             style="fill:none;stroke:#000000;stroke-width:0.377953;stroke-linecap:round;stroke-linejoin:round;stroke-dasharray:none;stroke-opacity:1;paint-order:markers stroke fill"
             d="m 501.45545,433.15519 v 48 h -16.62891 v 48.00001 h 16.62891 v 48 h 18.89844 v -48 h 16.63086 v -48.00001 h -16.63086 v -48 z" /><path
             id="path5-60-9"
             style="fill:none;stroke:#000000;stroke-width:0.377953;stroke-linecap:round;stroke-linejoin:round;stroke-dasharray:none;stroke-opacity:1;paint-order:markers stroke fill"
             d="m 553.61366,433.15519 v 48 h -16.62891 v 48.00001 h 16.62891 v 48 h 18.89844 v -48 h 16.63086 V 481.15519 H 572.5121 v -48 z" /><path
             id="path5-00-9"
             style="fill:none;stroke:#000000;stroke-width:0.377953;stroke-linecap:round;stroke-linejoin:round;stroke-dasharray:none;stroke-opacity:1;paint-order:markers stroke fill"
             d="m 605.77187,433.15519 v 48 h -16.62891 v 48.00001 h 16.62891 v 48 h 18.89844 v -48 h 16.63086 v -48.00001 h -16.63086 v -48 z" /><path
             id="rect1-0"
             style="fill:none;stroke:#000000;stroke-width:0.377953;stroke-linecap:round;stroke-linejoin:round;stroke-dasharray:none;stroke-opacity:1;paint-order:markers stroke fill"
             d="m 136.34798,577.1552 v 48 h -16.62891 v 48.00001 h 16.62891 v 48 h 18.89844 v -48 h 16.63086 V 625.1552 h -16.63086 v -48 z" /><path
             id="path5-603"
             style="fill:none;stroke:#000000;stroke-width:0.377953;stroke-linecap:round;stroke-linejoin:round;stroke-dasharray:none;stroke-opacity:1;paint-order:markers stroke fill"
             d="m 188.50619,577.1552 v 48 h -16.62891 v 48.00001 h 16.62891 v 48 h 18.89844 v -48 h 16.63086 V 625.1552 h -16.63086 v -48 z" /><path
             id="path5-9-5"
             style="fill:none;stroke:#000000;stroke-width:0.377953;stroke-linecap:round;stroke-linejoin:round;stroke-dasharray:none;stroke-opacity:1;paint-order:markers stroke fill"
             d="m 240.6644,577.1552 v 48 h -16.62891 v 48.00001 h 16.62891 v 48 h 18.89844 v -48 H 276.1937 V 625.1552 h -16.63086 v -48 z" /><path
             id="path5-2-8"
             style="fill:none;stroke:#000000;stroke-width:0.377953;stroke-linecap:round;stroke-linejoin:round;stroke-dasharray:none;stroke-opacity:1;paint-order:markers stroke fill"
             d="m 292.82261,577.1552 v 48 H 276.1937 v 48.00001 h 16.62891 v 48 h 18.89844 v -48 h 16.63086 V 625.1552 h -16.63086 v -48 z" /><path
             id="path5-22-20"
             style="fill:none;stroke:#000000;stroke-width:0.377953;stroke-linecap:round;stroke-linejoin:round;stroke-dasharray:none;stroke-opacity:1;paint-order:markers stroke fill"
             d="m 344.98082,577.1552 v 48 h -16.62891 v 48.00001 h 16.62891 v 48 h 18.89844 v -48 h 16.63086 V 625.1552 h -16.63086 v -48 z" /><path
             id="path5-6-18"
             style="fill:none;stroke:#000000;stroke-width:0.377953;stroke-linecap:round;stroke-linejoin:round;stroke-dasharray:none;stroke-opacity:1;paint-order:markers stroke fill"
             d="m 397.13903,577.1552 v 48 h -16.62891 v 48.00001 h 16.62891 v 48 h 18.89844 v -48 h 16.63086 V 625.1552 h -16.63086 v -48 z" /><path
             id="path5-4-1"
             style="fill:none;stroke:#000000;stroke-width:0.377953;stroke-linecap:round;stroke-linejoin:round;stroke-dasharray:none;stroke-opacity:1;paint-order:markers stroke fill"
             d="m 449.29724,577.1552 v 48 h -16.62891 v 48.00001 h 16.62891 v 48 h 18.89844 v -48 h 16.63086 V 625.1552 h -16.63086 v -48 z" /><path
             id="path5-0-2"
             style="fill:none;stroke:#000000;stroke-width:0.377953;stroke-linecap:round;stroke-linejoin:round;stroke-dasharray:none;stroke-opacity:1;paint-order:markers stroke fill"
             d="m 501.45545,577.1552 v 48 h -16.62891 v 48.00001 h 16.62891 v 48 h 18.89844 v -48 h 16.63086 V 625.1552 h -16.63086 v -48 z" /><path
             id="path5-60-7"
             style="fill:none;stroke:#000000;stroke-width:0.377953;stroke-linecap:round;stroke-linejoin:round;stroke-dasharray:none;stroke-opacity:1;paint-order:markers stroke fill"
             d="m 553.61366,577.1552 v 48 h -16.62891 v 48.00001 h 16.62891 v 48 h 18.89844 v -48 h 16.63086 V 625.1552 H 572.5121 v -48 z" /><path
             id="path5-00-2"
             style="fill:none;stroke:#000000;stroke-width:0.377953;stroke-linecap:round;stroke-linejoin:round;stroke-dasharray:none;stroke-opacity:1;paint-order:markers stroke fill"
             d="m 605.77187,577.1552 v 48 h -16.62891 v 48.00001 h 16.62891 v 48 h 18.89844 v -48 h 16.63086 V 625.1552 h -16.63086 v -48 z" /></g></g><g
         id="g5"
         transform="translate(12.866976,-72)"
         style="stroke-width:0.37795277;stroke-dasharray:none"><rect
           style="fill:none;stroke:#000000;stroke-width:0.37795277;stroke-linecap:round;stroke-linejoin:round;stroke-dasharray:none;stroke-opacity:1;paint-order:markers stroke fill"
           id="rect5"
           width="52.157482"
           height="48"
           x="123.19603"
           y="822.27747" /><rect
           style="fill:none;stroke:#000000;stroke-width:0.37795277;stroke-linecap:round;stroke-linejoin:round;stroke-dasharray:none;stroke-opacity:1;paint-order:markers stroke fill"
           id="rect5-6"
           width="52.157482"
           height="48"
           x="175.35352"
           y="822.27747" /><rect
           style="fill:none;stroke:#000000;stroke-width:0.37795277;stroke-linecap:round;stroke-linejoin:round;stroke-dasharray:none;stroke-opacity:1;paint-order:markers stroke fill"
           id="rect5-3"
           width="52.157482"
           height="48"
           x="227.511"
           y="822.27747" /><rect
           style="fill:none;stroke:#000000;stroke-width:0.37795277;stroke-linecap:round;stroke-linejoin:round;stroke-dasharray:none;stroke-opacity:1;paint-order:markers stroke fill"
           id="rect5-67"
           width="52.157482"
           height="48"
           x="383.98343"
           y="870.27747" /><rect
           style="fill:none;stroke:#000000;stroke-width:0.37795277;stroke-linecap:round;stroke-linejoin:round;stroke-dasharray:none;stroke-opacity:1;paint-order:markers stroke fill"
           id="rect5-4"
           width="52.157482"
           height="48"
           x="331.82596"
           y="870.27747" /><rect
           style="fill:none;stroke:#000000;stroke-width:0.37795277;stroke-linecap:round;stroke-linejoin:round;stroke-dasharray:none;stroke-opacity:1;paint-order:markers stroke fill"
           id="rect5-8"
           width="52.157482"
           height="48"
           x="436.1409"
           y="870.27747" /><rect
           style="fill:none;stroke:#000000;stroke-width:0.37795277;stroke-linecap:round;stroke-linejoin:round;stroke-dasharray:none;stroke-opacity:1;paint-order:markers stroke fill"
           id="rect5-9"
           width="52.157482"
           height="48"
           x="279.66849"
           y="822.27747" /><rect
           style="fill:none;stroke:#000000;stroke-width:0.37795277;stroke-linecap:round;stroke-linejoin:round;stroke-dasharray:none;stroke-opacity:1;paint-order:markers stroke fill"
           id="rect5-7"
           width="52.157482"
           height="48"
           x="227.511"
           y="870.27747" /><rect
           style="fill:none;stroke:#000000;stroke-width:0.37795277;stroke-linecap:round;stroke-linejoin:round;stroke-dasharray:none;stroke-opacity:1;paint-order:markers stroke fill"
           id="rect5-88"
           width="52.157482"
           height="48"
           x="279.66849"
           y="870.27747" /><rect
           style="fill:none;stroke:#000000;stroke-width:0.37795277;stroke-linecap:round;stroke-linejoin:round;stroke-dasharray:none;stroke-opacity:1;paint-order:markers stroke fill"
           id="rect5-68"
           width="52.157482"
           height="48"
           x="331.82596"
           y="822.27747" /><rect
           style="fill:none;stroke:#000000;stroke-width:0.37795277;stroke-linecap:round;stroke-linejoin:round;stroke-dasharray:none;stroke-opacity:1;paint-order:markers stroke fill"
           id="rect5-93"
           width="52.157482"
           height="48"
           x="436.1409"
           y="822.27747" /><rect
           style="fill:none;stroke:#000000;stroke-width:0.37795277;stroke-linecap:round;stroke-linejoin:round;stroke-dasharray:none;stroke-opacity:1;paint-order:markers stroke fill"
           id="rect5-72"
           width="52.157482"
           height="48"
           x="383.98343"
           y="822.27747" /><rect
           style="fill:none;stroke:#000000;stroke-width:0.37795277;stroke-linecap:round;stroke-linejoin:round;stroke-dasharray:none;stroke-opacity:1;paint-order:markers stroke fill"
           id="rect5-5"
           width="52.157482"
           height="48"
           x="488.29837"
           y="822.27747" /><rect
           style="fill:none;stroke:#000000;stroke-width:0.37795277;stroke-linecap:round;stroke-linejoin:round;stroke-dasharray:none;stroke-opacity:1;paint-order:markers stroke fill"
           id="rect5-58"
           width="52.157482"
           height="48"
           x="123.19603"
           y="870.27747" /><rect
           style="fill:none;stroke:#000000;stroke-width:0.37795277;stroke-linecap:round;stroke-linejoin:round;stroke-dasharray:none;stroke-opacity:1;paint-order:markers stroke fill"
           id="rect5-99"
           width="52.157482"
           height="48"
           x="592.61334"
           y="822.27747" /><rect
           style="fill:none;stroke:#000000;stroke-width:0.37795277;stroke-linecap:round;stroke-linejoin:round;stroke-dasharray:none;stroke-opacity:1;paint-order:markers stroke fill"
           id="rect5-65"
           width="52.157482"
           height="48"
           x="540.45587"
           y="822.27747" /><rect
           style="fill:none;stroke:#000000;stroke-width:0.37795277;stroke-linecap:round;stroke-linejoin:round;stroke-dasharray:none;stroke-opacity:1;paint-order:markers stroke fill"
           id="rect5-5-3"
           width="52.157482"
           height="48"
           x="488.29837"
           y="870.27747" /><rect
           style="fill:none;stroke:#000000;stroke-width:0.37795277;stroke-linecap:round;stroke-linejoin:round;stroke-dasharray:none;stroke-opacity:1;paint-order:markers stroke fill"
           id="rect5-99-2"
           width="52.157482"
           height="48"
           x="592.61334"
           y="870.27747" /><rect
           style="fill:none;stroke:#000000;stroke-width:0.37795277;stroke-linecap:round;stroke-linejoin:round;stroke-dasharray:none;stroke-opacity:1;paint-order:markers stroke fill"
           id="rect5-65-2"
           width="52.157482"
           height="48"
           x="540.45587"
           y="870.27747" /><rect
           style="fill:none;stroke:#000000;stroke-width:0.37795277;stroke-linecap:round;stroke-linejoin:round;stroke-dasharray:none;stroke-opacity:1;paint-order:markers stroke fill"
           id="rect5-2"
           width="52.157482"
           height="48"
           x="175.35352"
           y="870.27747" /><rect
           style="fill:none;stroke:#000000;stroke-width:0.37795277;stroke-linecap:round;stroke-linejoin:round;stroke-dasharray:none;stroke-opacity:1;paint-order:markers stroke fill"
           id="rect5-67-1"
           width="52.157482"
           height="48"
           x="383.98343"
           y="918.27747" /><rect
           style="fill:none;stroke:#000000;stroke-width:0.37795277;stroke-linecap:round;stroke-linejoin:round;stroke-dasharray:none;stroke-opacity:1;paint-order:markers stroke fill"
           id="rect5-4-4"
           width="52.157482"
           height="48"
           x="331.82596"
           y="918.27747" /><rect
           style="fill:none;stroke:#000000;stroke-width:0.37795277;stroke-linecap:round;stroke-linejoin:round;stroke-dasharray:none;stroke-opacity:1;paint-order:markers stroke fill"
           id="rect5-8-0"
           width="52.157482"
           height="48"
           x="436.1409"
           y="918.27747" /><rect
           style="fill:none;stroke:#000000;stroke-width:0.37795277;stroke-linecap:round;stroke-linejoin:round;stroke-dasharray:none;stroke-opacity:1;paint-order:markers stroke fill"
           id="rect5-7-6"
           width="52.157482"
           height="48"
           x="227.511"
           y="918.27747" /><rect
           style="fill:none;stroke:#000000;stroke-width:0.37795277;stroke-linecap:round;stroke-linejoin:round;stroke-dasharray:none;stroke-opacity:1;paint-order:markers stroke fill"
           id="rect5-88-8"
           width="52.157482"
           height="48"
           x="279.66849"
           y="918.27747" /><rect
           style="fill:none;stroke:#000000;stroke-width:0.37795277;stroke-linecap:round;stroke-linejoin:round;stroke-dasharray:none;stroke-opacity:1;paint-order:markers stroke fill"
           id="rect5-58-8"
           width="52.157482"
           height="48"
           x="123.19603"
           y="918.27747" /><rect
           style="fill:none;stroke:#000000;stroke-width:0.37795277;stroke-linecap:round;stroke-linejoin:round;stroke-dasharray:none;stroke-opacity:1;paint-order:markers stroke fill"
           id="rect5-5-3-1"
           width="52.157482"
           height="48"
           x="488.29837"
           y="918.27747" /><rect
           style="fill:none;stroke:#000000;stroke-width:0.37795277;stroke-linecap:round;stroke-linejoin:round;stroke-dasharray:none;stroke-opacity:1;paint-order:markers stroke fill"
           id="rect5-99-2-7"
           width="52.157482"
           height="48"
           x="592.61334"
           y="918.27747" /><rect
           style="fill:none;stroke:#000000;stroke-width:0.37795277;stroke-linecap:round;stroke-linejoin:round;stroke-dasharray:none;stroke-opacity:1;paint-order:markers stroke fill"
           id="rect5-65-2-5"
           width="52.157482"
           height="48"
           x="540.45587"
           y="918.27747" /><rect
           style="fill:none;stroke:#000000;stroke-width:0.37795277;stroke-linecap:round;stroke-linejoin:round;stroke-dasharray:none;stroke-opacity:1;paint-order:markers stroke fill"
           id="rect5-2-9"
           width="52.157482"
           height="48"
           x="175.35352"
           y="918.27747" /><rect
           style="fill:none;stroke:#000000;stroke-width:0.37795277;stroke-linecap:round;stroke-linejoin:round;stroke-dasharray:none;stroke-opacity:1;paint-order:markers stroke fill"
           id="rect5-67-3"
           width="52.157482"
           height="48"
           x="383.98343"
           y="966.27747" /><rect
           style="fill:none;stroke:#000000;stroke-width:0.37795277;stroke-linecap:round;stroke-linejoin:round;stroke-dasharray:none;stroke-opacity:1;paint-order:markers stroke fill"
           id="rect5-4-1"
           width="52.157482"
           height="48"
           x="331.82596"
           y="966.27747" /><rect
           style="fill:none;stroke:#000000;stroke-width:0.37795277;stroke-linecap:round;stroke-linejoin:round;stroke-dasharray:none;stroke-opacity:1;paint-order:markers stroke fill"
           id="rect5-8-1"
           width="52.157482"
           height="48"
           x="436.1409"
           y="966.27747" /><rect
           style="fill:none;stroke:#000000;stroke-width:0.37795277;stroke-linecap:round;stroke-linejoin:round;stroke-dasharray:none;stroke-opacity:1;paint-order:markers stroke fill"
           id="rect5-7-62"
           width="52.157482"
           height="48"
           x="227.511"
           y="966.27747" /><rect
           style="fill:none;stroke:#000000;stroke-width:0.37795277;stroke-linecap:round;stroke-linejoin:round;stroke-dasharray:none;stroke-opacity:1;paint-order:markers stroke fill"
           id="rect5-88-1"
           width="52.157482"
           height="48"
           x="279.66849"
           y="966.27747" /><rect
           style="fill:none;stroke:#000000;stroke-width:0.37795277;stroke-linecap:round;stroke-linejoin:round;stroke-dasharray:none;stroke-opacity:1;paint-order:markers stroke fill"
           id="rect5-58-84"
           width="52.157482"
           height="48"
           x="123.19603"
           y="966.27747" /><rect
           style="fill:none;stroke:#000000;stroke-width:0.37795277;stroke-linecap:round;stroke-linejoin:round;stroke-dasharray:none;stroke-opacity:1;paint-order:markers stroke fill"
           id="rect5-5-3-0"
           width="52.157482"
           height="48"
           x="488.29837"
           y="966.27747" /><rect
           style="fill:none;stroke:#000000;stroke-width:0.37795277;stroke-linecap:round;stroke-linejoin:round;stroke-dasharray:none;stroke-opacity:1;paint-order:markers stroke fill"
           id="rect5-99-2-2"
           width="52.157482"
           height="48"
           x="592.61334"
           y="966.27747" /><rect
           style="fill:none;stroke:#000000;stroke-width:0.37795277;stroke-linecap:round;stroke-linejoin:round;stroke-dasharray:none;stroke-opacity:1;paint-order:markers stroke fill"
           id="rect5-65-2-1"
           width="52.157482"
           height="48"
           x="540.45587"
           y="966.27747" /><rect
           style="fill:none;stroke:#000000;stroke-width:0.37795277;stroke-linecap:round;stroke-linejoin:round;stroke-dasharray:none;stroke-opacity:1;paint-order:markers stroke fill"
           id="rect5-2-3"
           width="52.157482"
           height="48"
           x="175.35352"
           y="966.27747" /></g><text
         xml:space="preserve"
         style="font-size:18.6667px;line-height:1.5;font-family:Awesome;-inkscape-font-specification:Awesome;fill:none;stroke:#000000;stroke-width:0;stroke-linecap:round;stroke-linejoin:round;stroke-dasharray:none;stroke-opacity:1;paint-order:markers stroke fill"
         x="136.05936"
         y="111.15517"
         id="text7"><tspan
           sodipodi:role="line"
           id="tspan7"
           x="136.05936"
           y="111.15517"
           style="font-style:normal;font-variant:normal;font-weight:normal;font-stretch:normal;font-size:18.6667px;font-family:Arial;-inkscape-font-specification:Arial;fill:#000000;stroke-width:0;stroke-dasharray:none"><tspan
   style="font-style:normal;font-variant:normal;font-weight:bold;font-stretch:normal;font-family:Arial;-inkscape-font-specification:'Arial Bold'"
   id="tspan11">Kailh PG1316S</tspan> papermod2</tspan></text><text
         xml:space="preserve"
         style="font-size:10.6667px;line-height:1.1;font-family:Awesome;-inkscape-font-specification:Awesome;text-align:start;text-anchor:start;fill:none;stroke:#000000;stroke-width:0;stroke-linecap:round;stroke-linejoin:round;stroke-dasharray:none;stroke-opacity:1;paint-order:markers stroke fill"
         x="177.93349"
         y="974.92798"
         id="text7-23"><tspan
           sodipodi:role="line"
           id="tspan7-7"
           x="177.93349"
           y="974.92798"
           style="font-style:normal;font-variant:normal;font-weight:bold;font-stretch:normal;font-size:10.6667px;line-height:1.1;font-family:Arial;-inkscape-font-specification:'Arial Bold';text-align:start;text-anchor:start;fill:#000000;stroke-width:0;stroke-dasharray:none">mike hölscher</tspan><tspan
           sodipodi:role="line"
           x="177.93349"
           y="987.60901"
           style="font-style:normal;font-variant:normal;font-weight:normal;font-stretch:normal;font-size:10.6667px;line-height:1.1;font-family:Arial;-inkscape-font-specification:Arial;text-align:start;text-anchor:start;fill:#000000;stroke-width:0;stroke-dasharray:none"
           id="tspan9">github.com/mikeholscher</tspan><tspan
           sodipodi:role="line"
           x="177.93349"
           y="999.34235"
           style="font-style:normal;font-variant:normal;font-weight:normal;font-stretch:normal;font-size:10.6667px;line-height:1.1;font-family:Arial;-inkscape-font-specification:Arial;text-align:start;text-anchor:start;fill:#000000;stroke-width:0;stroke-dasharray:none"
           id="tspan8" /></text><text
         xml:space="preserve"
         style="font-size:18.6667px;line-height:1.5;font-family:Awesome;-inkscape-font-specification:Awesome;fill:none;stroke:#000000;stroke-width:0;stroke-linecap:round;stroke-linejoin:round;stroke-dasharray:none;stroke-opacity:1;paint-order:markers stroke fill"
         x="136.063"
         y="738.27747"
         id="text7-2"><tspan
           sodipodi:role="line"
           id="tspan7-1"
           x="136.063"
           y="738.27747"
           style="font-style:normal;font-variant:normal;font-weight:normal;font-stretch:normal;font-size:18.6667px;font-family:Arial;-inkscape-font-specification:Arial;fill:#000000;stroke-width:0;stroke-dasharray:none"><tspan
   style="font-style:normal;font-variant:normal;font-weight:bold;font-stretch:normal;font-family:Arial;-inkscape-font-specification:'Arial Bold'"
   id="tspan10">Kailh PG1316S</tspan> papermod1</tspan></text><text
         xml:space="preserve"
         style="font-size:10.6667px;line-height:0;font-family:Awesome;-inkscape-font-specification:Awesome;text-align:end;text-anchor:end;fill:none;stroke:#000000;stroke-width:0;stroke-linecap:round;stroke-linejoin:round;stroke-dasharray:none;stroke-opacity:1;paint-order:markers stroke fill"
         x="657.71118"
         y="974.40063"
         id="text7-2-0"><tspan
           sodipodi:role="line"
           id="tspan7-1-6"
           x="657.71118"
           y="974.40063"
           style="font-style:normal;font-variant:normal;font-weight:bold;font-stretch:normal;font-size:10.6667px;line-height:1.5;font-family:Arial;-inkscape-font-specification:'Arial Bold';text-align:end;text-anchor:end;fill:#000000;stroke-width:0;stroke-dasharray:none">MAKE SURE TO PRINT AT 100% SCALE</tspan><tspan
           sodipodi:role="line"
           x="660.67474"
           y="987.73401"
           style="font-style:normal;font-variant:normal;font-weight:normal;font-stretch:normal;font-size:10.6667px;line-height:1;font-family:Arial;-inkscape-font-specification:Arial;text-align:end;text-anchor:end;fill:#000000;stroke-width:0;stroke-dasharray:none"
           id="tspan12">the complete 10x4 papermod1 block should measure 138mm wide </tspan></text><path
         style="fill:#030303;stroke:none;stroke-width:0.565241"
         d="m 140.92374,983.22798 c -1.2e-4,1.05654 -0.46826,2.44896 0.005,3.43853 0.61141,1.2801 2.55566,1.2935 3.25005,0.0882 0.47642,-0.82694 0.40287,-2.2392 0.44867,-3.17405 0.0179,-0.36351 -0.0303,-1.16378 0.22955,-1.4369 0.24337,-0.25572 0.76649,-0.3097 1.093,-0.40228 0.84814,-0.2404 1.69392,-0.53913 2.55693,-0.71775 -0.13322,1.05412 -0.16479,2.11909 -0.28968,3.17412 -0.0811,0.68507 -0.28265,1.53598 -0.0535,2.20427 0.44909,1.30955 2.28515,1.72664 3.18317,0.60187 0.39972,-0.50064 0.37665,-1.06192 0.44745,-1.65989 0.13433,-1.13478 0.26862,-2.29737 0.3241,-3.43865 0.0248,-0.50866 -0.059,-1.48409 0.26247,-1.90186 0.21403,-0.2781 0.7438,-0.34791 1.06349,-0.44134 0.85179,-0.24888 1.71159,-0.47243 2.55692,-0.74273 -0.015,1.80674 -0.2817,3.66728 -0.45581,5.4665 -0.0812,0.83922 -0.34262,1.79431 0.15273,2.55348 0.82962,1.27151 2.81675,0.97651 3.29162,-0.43738 0.36958,-1.10041 0.28886,-2.54794 0.36982,-3.70312 0.11704,-1.66995 0.42834,-3.35064 0.43295,-5.02571 l 3.79133,-1.05804 c -0.52412,1.77316 -0.36539,3.97359 -0.54399,5.81921 -0.10909,1.12709 -0.44662,2.49232 -0.29329,3.615 0.21616,1.58268 2.35537,2.19664 3.32365,0.87816 0.57356,-0.78105 0.45416,-2.15311 0.5193,-3.08243 0.12777,-1.82313 0.33013,-3.64761 0.50616,-5.46656 0.0753,-0.77754 -0.0607,-1.9144 0.2445,-2.63331 0.17358,-0.40886 0.89176,-0.47028 1.26935,-0.57794 1.07033,-0.30516 2.62992,-0.48858 3.51857,-1.17866 1.14039,-0.88555 0.69814,-2.82349 -0.69712,-3.14602 -1.19157,-0.27545 -2.54976,0.50816 -3.70315,0.74685 1.2e-4,-1.05655 0.46826,-2.44894 -0.005,-3.43856 -0.61141,-1.28006 -2.55566,-1.29346 -3.25003,-0.0882 -0.47642,0.82694 -0.40287,2.23924 -0.44868,3.17405 -0.0178,0.36351 0.0304,1.16378 -0.22955,1.43692 -0.24337,0.25573 -0.76649,0.30973 -1.093,0.40227 -0.84814,0.24039 -1.69392,0.53915 -2.55694,0.71774 0.13322,-1.05407 0.16479,-2.11908 0.28969,-3.17411 0.0811,-0.68504 0.28264,-1.53598 0.0535,-2.20427 -0.44909,-1.30952 -2.28515,-1.72661 -3.18318,-0.60188 -0.3997,0.50063 -0.37667,1.06195 -0.44745,1.65993 -0.13432,1.13477 -0.26862,2.29734 -0.3241,3.43863 -0.0248,0.50865 0.059,1.48411 -0.26247,1.90185 -0.21402,0.27813 -0.7438,0.34791 -1.06349,0.44133 -0.85178,0.24888 -1.71159,0.47247 -2.55692,0.74278 0.0149,-1.80675 0.28169,-3.66731 0.45581,-5.46655 0.0812,-0.83917 0.34262,-1.79427 -0.15273,-2.55346 -0.82962,-1.27148 -2.81673,-0.97652 -3.29162,0.43737 -0.36958,1.10042 -0.28886,2.54797 -0.36982,3.70315 -0.11704,1.66994 -0.42834,3.35063 -0.43295,5.0257 l -3.79131,1.05804 c 0.5241,-1.77315 0.36537,-3.97358 0.54397,-5.81923 0.10909,-1.12711 0.44662,-2.4923 0.29329,-3.61497 -0.21615,-1.58271 -2.35537,-2.19663 -3.32365,-0.87817 -0.57356,0.781 -0.45416,2.15311 -0.5193,3.08242 -0.12777,1.82311 -0.33013,3.64759 -0.50616,5.46654 -0.0753,0.77757 0.0607,1.91441 -0.2445,2.63334 -0.17358,0.40884 -0.89176,0.47028 -1.26935,0.57796 -1.07033,0.30511 -2.62992,0.48853 -3.51857,1.17864 -1.14037,0.88556 -0.69815,2.82349 0.69712,3.14602 1.19157,0.27544 2.54976,-0.50815 3.70315,-0.74686 z"
         id="path9" /></g></g></svg>
